<svg width="15" height="14" viewBox="0 0 15 14" fill="none" xmlns="http://www.w3.org/2000/svg">
<path d="M8.08623 4.57784C8.08623 4.13005 8.59942 3.87509 8.99323 4.0618L9.07557 4.10866L9.14412 4.16167L14.1409 8.58284C14.3482 8.76624 14.388 9.04848 14.2603 9.26984L14.2046 9.34969L14.141 9.41513L9.14423 13.8377C8.79392 14.1478 8.23909 13.9826 8.11247 13.5912L8.09212 13.5039L8.08623 13.4216V11.3261L7.7999 11.3493C7.52334 11.3759 7.24845 11.4147 6.97512 11.4657C5.27093 11.784 3.62719 12.5779 2.03623 13.8564C1.60354 14.2042 0.934076 13.8754 1.00524 13.3501C1.54552 9.36215 3.76341 7.11935 7.54287 6.7476L7.83667 6.72269L8.08623 6.70758V4.57784Z" fill="#2D2D2D"/>
<circle cx="3.5" cy="3.49976" r="3.5" fill="#2D2D2D"/>
<path d="M1.21561 4V1.56627H2.14663C2.31432 1.56627 2.46241 1.59567 2.59091 1.65448C2.72158 1.71328 2.82393 1.80039 2.89798 1.91582C2.97203 2.03124 3.00905 2.17389 3.00905 2.34376C3.00905 2.50927 2.97094 2.65083 2.89471 2.76844C2.81849 2.88386 2.71613 2.97097 2.58764 3.02978L3.14299 4H2.57457L1.97349 2.92524L2.30017 3.11798H1.72195V4H1.21561ZM1.72195 2.67697H2.14989C2.22176 2.67697 2.28383 2.66281 2.3361 2.6345C2.38837 2.60619 2.42866 2.56699 2.45697 2.5169C2.48746 2.46681 2.5027 2.40909 2.5027 2.34376C2.5027 2.27625 2.48746 2.21745 2.45697 2.16736C2.42866 2.11726 2.38837 2.07806 2.3361 2.04975C2.28383 2.02144 2.22176 2.00728 2.14989 2.00728H1.72195V2.67697ZM3.35857 4.65335V2.21636H3.81591V2.5561L3.77344 2.4581C3.83224 2.3688 3.91173 2.3002 4.01191 2.25229C4.11427 2.2022 4.23079 2.17716 4.36146 2.17716C4.53133 2.17716 4.68486 2.21853 4.82207 2.30129C4.95927 2.38405 5.06816 2.49621 5.14874 2.63777C5.22932 2.77715 5.26961 2.93395 5.26961 3.10818C5.26961 3.28023 5.22932 3.43703 5.14874 3.57859C5.07034 3.72015 4.96254 3.83231 4.82533 3.91506C4.68813 3.99782 4.53242 4.0392 4.35819 4.0392C4.23623 4.0392 4.12298 4.01742 4.01845 3.97387C3.91609 3.92813 3.83333 3.86171 3.77018 3.77459L3.84858 3.67333V4.65335H3.35857ZM4.29939 3.59819C4.39086 3.59819 4.47144 3.5775 4.54113 3.53612C4.61082 3.49474 4.66526 3.43703 4.70447 3.36298C4.74367 3.28894 4.76327 3.204 4.76327 3.10818C4.76327 3.01235 4.74367 2.92851 4.70447 2.85664C4.66526 2.78259 4.61082 2.72488 4.54113 2.6835C4.47144 2.63994 4.39086 2.61817 4.29939 2.61817C4.21228 2.61817 4.13387 2.63886 4.06418 2.68023C3.99667 2.72161 3.94331 2.77933 3.90411 2.85337C3.86709 2.92742 3.84858 3.01235 3.84858 3.10818C3.84858 3.204 3.86709 3.28894 3.90411 3.36298C3.94331 3.43703 3.99667 3.49474 4.06418 3.53612C4.13387 3.5775 4.21228 3.59819 4.29939 3.59819Z" fill="#F8F9FA"/>
</svg>
